<?xml version="1.0" encoding="utf-8"?>
<!-- Generator: Adobe Illustrator 15.1.0, SVG Export Plug-In . SVG Version: 6.00 Build 0)  -->
<!DOCTYPE svg PUBLIC "-//W3C//DTD SVG 1.1//EN" "http://www.w3.org/Graphics/SVG/1.1/DTD/svg11.dtd">
<svg version="1.1" id="Layer_1" xmlns="http://www.w3.org/2000/svg" xmlns:xlink="http://www.w3.org/1999/xlink" x="0px" y="0px"
	 width="64px" height="64px" viewBox="0 0 64 64" enable-background="new 0 0 64 64" xml:space="preserve">
<linearGradient id="SVGID_1_" gradientUnits="userSpaceOnUse" x1="0.6729" y1="32" x2="63.3271" y2="32">
	<stop  offset="0" style="stop-color:#D4D400"/>
	<stop  offset="1" style="stop-color:#AD4500"/>
</linearGradient>
<path fill="url(#SVGID_1_)" d="M37.913,14.323c-2.042,0-7.067,2.558-8.72,3.481c-0.959-1.012-1.065-2.522-1.243-4.475
	c-0.959,0.994-0.337,4.014,0,5.115c-4.19,3.125-7.707,6.357-11.295,10.016c-1.225-1.936-2.06-3.517-2.344-7.033
	c-1.243,2.664,0.355,6.163,1.278,8.098c-3.96,4.991-7.885,10.354-11.064,15.486C-10.001,14.323,34.344-3.916,63.327,8.641
	C45.372,20.593,40.736,58.313,9.197,48.28c-2.22,3.196-3.712,7.37-5.541,11.081c-1.527,0.107-2.593-0.674-2.983-1.277
	c3.072-7.441,7.033-13.995,11.082-20.459c4.387,0.125,8.737,0.195,12.36-0.426c-3.144-0.834-6.908-0.319-10.655-1.278
	c2.291-4.387,5.63-7.726,8.95-11.082c3.605,0.32,7.264,1.314,11.082,0.426c-3.32-0.586-6.535-0.799-9.377-1.705
	C27.223,20.131,33.438,16.401,37.913,14.323z"/>
</svg>
