<svg xmlns="http://www.w3.org/2000/svg" viewBox="0 0 384 512"><!-- Font Awesome Pro 6.0.0-alpha1 by @fontawesome - https://fontawesome.com License - https://fontawesome.com/license (Commercial License) --><path d="M203 117C200 114 196 112 192 112S184 114 181 117L37 261C30 267 30 277 37 283S53 290 59 283L176 167V464C176 473 183 480 192 480S208 473 208 464V167L325 283C331 290 341 290 347 283S354 267 347 261L203 117ZM368 32H16C7 32 0 39 0 48S7 64 16 64H368C377 64 384 57 384 48S377 32 368 32Z"/></svg>