<svg xmlns="http://www.w3.org/2000/svg" viewBox="0 0 512 512"><!-- Font Awesome Pro 6.0.0-alpha1 by @fontawesome - https://fontawesome.com License - https://fontawesome.com/license (Commercial License) --><path d="M464 32C455 32 448 39 448 48V177C416 100 341 48 256 48C154 48 68 121 51 221C49 230 55 238 64 240C65 240 66 240 67 240C74 240 81 234 82 227C97 142 170 80 256 80C328 80 393 125 420 192H304C295 192 288 199 288 208S295 224 304 224H464C473 224 480 217 480 208V48C480 39 473 32 464 32ZM448 272C439 271 431 277 430 285C415 370 342 432 256 432C184 432 119 387 92 320H208C217 320 224 313 224 304S217 288 208 288H48C39 288 32 295 32 304V464C32 473 39 480 48 480S64 473 64 464V335C96 412 171 464 256 464C358 464 444 391 461 291C463 282 457 274 448 272Z"/></svg>