<svg xmlns="http://www.w3.org/2000/svg" viewBox="0 0 384 512"><!-- Font Awesome Pro 6.0.0-alpha1 by @fontawesome - https://fontawesome.com License - https://fontawesome.com/license (Commercial License) --><path d="M181 395C184 398 188 400 192 400S200 398 203 395L347 251C354 245 354 235 347 229S331 222 325 229L208 345V48C208 39 201 32 192 32S176 39 176 48V345L59 229C53 222 43 222 37 229S30 245 37 251L181 395ZM368 448H16C7 448 0 455 0 464S7 480 16 480H368C377 480 384 473 384 464S377 448 368 448Z"/></svg>