<svg xmlns="http://www.w3.org/2000/svg" viewBox="0 0 448 512"><!-- Font Awesome Pro 6.0.0-alpha1 by @fontawesome - https://fontawesome.com License - https://fontawesome.com/license (Commercial License) --><path d="M128 88C141 88 152 77 152 64C152 51 141 40 128 40S104 51 104 64C104 77 115 88 128 88ZM32 88C45 88 56 77 56 64C56 51 45 40 32 40S8 51 8 64C8 77 19 88 32 88ZM32 184C45 184 56 173 56 160C56 147 45 136 32 136S8 147 8 160C8 173 19 184 32 184ZM416 88C429 88 440 77 440 64C440 51 429 40 416 40S392 51 392 64C392 77 403 88 416 88ZM416 184C429 184 440 173 440 160C440 147 429 136 416 136S392 147 392 160C392 173 403 184 416 184ZM320 88C333 88 344 77 344 64C344 51 333 40 320 40S296 51 296 64C296 77 307 88 320 88ZM32 424C19 424 8 435 8 448C8 461 19 472 32 472S56 461 56 448C56 435 45 424 32 424ZM416 328C403 328 392 339 392 352C392 365 403 376 416 376S440 365 440 352C440 339 429 328 416 328ZM416 424C403 424 392 435 392 448C392 461 403 472 416 472S440 461 440 448C440 435 429 424 416 424ZM320 424C307 424 296 435 296 448C296 461 307 472 320 472S344 461 344 448C344 435 333 424 320 424ZM128 424C115 424 104 435 104 448C104 461 115 472 128 472S152 461 152 448C152 435 141 424 128 424ZM32 328C19 328 8 339 8 352C8 365 19 376 32 376S56 365 56 352C56 339 45 328 32 328ZM432 240H240V48C240 39 233 32 224 32S208 39 208 48V240H16C7 240 0 247 0 256S7 272 16 272H208V464C208 473 215 480 224 480S240 473 240 464V272H432C441 272 448 265 448 256S441 240 432 240Z"/></svg>