<svg xmlns="http://www.w3.org/2000/svg" viewBox="0 0 448 512"><!-- Font Awesome Pro 6.0.0-alpha1 by @fontawesome - https://fontawesome.com License - https://fontawesome.com/license (Commercial License) --><path d="M224 328C211 328 200 339 200 352C200 365 211 376 224 376S248 365 248 352C248 339 237 328 224 328ZM128 232C115 232 104 243 104 256C104 269 115 280 128 280S152 269 152 256C152 243 141 232 128 232ZM224 232C211 232 200 243 200 256C200 269 211 280 224 280S248 269 248 256C248 243 237 232 224 232ZM320 232C307 232 296 243 296 256C296 269 307 280 320 280S344 269 344 256C344 243 333 232 320 232ZM224 136C211 136 200 147 200 160C200 173 211 184 224 184S248 173 248 160C248 147 237 136 224 136ZM400 32H48C22 32 0 54 0 80V432C0 458 22 480 48 480H400C426 480 448 458 448 432V80C448 54 426 32 400 32ZM416 432C416 441 409 448 400 448H48C39 448 32 441 32 432V80C32 71 39 64 48 64H400C409 64 416 71 416 80V432Z"/></svg>