<svg xmlns="http://www.w3.org/2000/svg" viewBox="0 0 448 512"><!-- Font Awesome Pro 6.0.0-alpha1 by @fontawesome - https://fontawesome.com License - https://fontawesome.com/license (Commercial License) --><path d="M128 40C115 40 104 51 104 64C104 77 115 88 128 88S152 77 152 64C152 51 141 40 128 40ZM224 424C211 424 200 435 200 448C200 461 211 472 224 472S248 461 248 448C248 435 237 424 224 424ZM224 328C211 328 200 339 200 352C200 365 211 376 224 376S248 365 248 352C248 339 237 328 224 328ZM224 232C211 232 200 243 200 256C200 269 211 280 224 280S248 269 248 256C248 243 237 232 224 232ZM416 88C429 88 440 77 440 64C440 51 429 40 416 40S392 51 392 64C392 77 403 88 416 88ZM224 136C211 136 200 147 200 160C200 173 211 184 224 184S248 173 248 160C248 147 237 136 224 136ZM128 232C115 232 104 243 104 256C104 269 115 280 128 280S152 269 152 256C152 243 141 232 128 232ZM128 424C115 424 104 435 104 448C104 461 115 472 128 472S152 461 152 448C152 435 141 424 128 424ZM416 136C403 136 392 147 392 160C392 173 403 184 416 184S440 173 440 160C440 147 429 136 416 136ZM416 424C403 424 392 435 392 448C392 461 403 472 416 472S440 461 440 448C440 435 429 424 416 424ZM416 328C403 328 392 339 392 352C392 365 403 376 416 376S440 365 440 352C440 339 429 328 416 328ZM416 232C403 232 392 243 392 256C392 269 403 280 416 280S440 269 440 256C440 243 429 232 416 232ZM320 232C307 232 296 243 296 256C296 269 307 280 320 280S344 269 344 256C344 243 333 232 320 232ZM320 40C307 40 296 51 296 64C296 77 307 88 320 88S344 77 344 64C344 51 333 40 320 40ZM320 424C307 424 296 435 296 448C296 461 307 472 320 472S344 461 344 448C344 435 333 424 320 424ZM224 40C211 40 200 51 200 64C200 77 211 88 224 88S248 77 248 64C248 51 237 40 224 40ZM16 32C7 32 0 39 0 48V464C0 473 7 480 16 480S32 473 32 464V48C32 39 25 32 16 32Z"/></svg>