<svg xmlns="http://www.w3.org/2000/svg" viewBox="0 0 448 512"><!-- Font Awesome Pro 6.0.0-alpha1 by @fontawesome - https://fontawesome.com License - https://fontawesome.com/license (Commercial License) --><path d="M224 88C237 88 248 77 248 64C248 51 237 40 224 40S200 51 200 64C200 77 211 88 224 88ZM224 184C237 184 248 173 248 160C248 147 237 136 224 136S200 147 200 160C200 173 211 184 224 184ZM320 88C333 88 344 77 344 64C344 51 333 40 320 40S296 51 296 64C296 77 307 88 320 88ZM416 376C429 376 440 365 440 352C440 339 429 328 416 328S392 339 392 352C392 365 403 376 416 376ZM320 280C333 280 344 269 344 256C344 243 333 232 320 232S296 243 296 256C296 269 307 280 320 280ZM416 88C429 88 440 77 440 64C440 51 429 40 416 40S392 51 392 64C392 77 403 88 416 88ZM416 280C429 280 440 269 440 256C440 243 429 232 416 232S392 243 392 256C392 269 403 280 416 280ZM416 184C429 184 440 173 440 160C440 147 429 136 416 136S392 147 392 160C392 173 403 184 416 184ZM32 376C45 376 56 365 56 352C56 339 45 328 32 328S8 339 8 352C8 365 19 376 32 376ZM32 88C45 88 56 77 56 64C56 51 45 40 32 40S8 51 8 64C8 77 19 88 32 88ZM32 280C45 280 56 269 56 256C56 243 45 232 32 232S8 243 8 256C8 269 19 280 32 280ZM32 184C45 184 56 173 56 160C56 147 45 136 32 136S8 147 8 160C8 173 19 184 32 184ZM432 448H16C7 448 0 455 0 464S7 480 16 480H432C441 480 448 473 448 464S441 448 432 448ZM128 280C141 280 152 269 152 256C152 243 141 232 128 232S104 243 104 256C104 269 115 280 128 280ZM224 376C237 376 248 365 248 352C248 339 237 328 224 328S200 339 200 352C200 365 211 376 224 376ZM224 280C237 280 248 269 248 256C248 243 237 232 224 232S200 243 200 256C200 269 211 280 224 280ZM128 88C141 88 152 77 152 64C152 51 141 40 128 40S104 51 104 64C104 77 115 88 128 88Z"/></svg>