<svg xmlns="http://www.w3.org/2000/svg" viewBox="0 0 448 512"><!-- Font Awesome Pro 6.0.0-alpha1 by @fontawesome - https://fontawesome.com License - https://fontawesome.com/license (Commercial License) --><path d="M120 40C107 40 96 51 96 64C96 77 107 88 120 88S144 77 144 64C144 51 133 40 120 40ZM24 136C11 136 0 147 0 160C0 173 11 184 24 184S48 173 48 160C48 147 37 136 24 136ZM120 424C107 424 96 435 96 448C96 461 107 472 120 472S144 461 144 448C144 435 133 424 120 424ZM120 232C107 232 96 243 96 256C96 269 107 280 120 280S144 269 144 256C144 243 133 232 120 232ZM24 40C11 40 0 51 0 64C0 77 11 88 24 88S48 77 48 64C48 51 37 40 24 40ZM24 424C11 424 0 435 0 448C0 461 11 472 24 472S48 461 48 448C48 435 37 424 24 424ZM24 328C11 328 0 339 0 352C0 365 11 376 24 376S48 365 48 352C48 339 37 328 24 328ZM24 232C11 232 0 243 0 256C0 269 11 280 24 280S48 269 48 256C48 243 37 232 24 232ZM216 328C203 328 192 339 192 352C192 365 203 376 216 376S240 365 240 352C240 339 229 328 216 328ZM216 40C203 40 192 51 192 64C192 77 203 88 216 88S240 77 240 64C240 51 229 40 216 40ZM312 232C299 232 288 243 288 256C288 269 299 280 312 280S336 269 336 256C336 243 325 232 312 232ZM216 424C203 424 192 435 192 448C192 461 203 472 216 472S240 461 240 448C240 435 229 424 216 424ZM312 40C299 40 288 51 288 64C288 77 299 88 312 88S336 77 336 64C336 51 325 40 312 40ZM312 424C299 424 288 435 288 448C288 461 299 472 312 472S336 461 336 448C336 435 325 424 312 424ZM216 232C203 232 192 243 192 256C192 269 203 280 216 280S240 269 240 256C240 243 229 232 216 232ZM216 136C203 136 192 147 192 160C192 173 203 184 216 184S240 173 240 160C240 147 229 136 216 136ZM424 32C415 32 408 39 408 48V464C408 473 415 480 424 480S440 473 440 464V48C440 39 433 32 424 32Z"/></svg>