<svg xmlns="http://www.w3.org/2000/svg" viewBox="0 0 448 512"><!-- Font Awesome Pro 6.0.0-alpha1 by @fontawesome - https://fontawesome.com License - https://fontawesome.com/license (Commercial License) --><path d="M128 424C115 424 104 435 104 448S115 472 128 472C141 472 152 461 152 448S141 424 128 424ZM224 328C211 328 200 339 200 352S211 376 224 376C237 376 248 365 248 352S237 328 224 328ZM32 136C19 136 8 147 8 160S19 184 32 184C45 184 56 173 56 160S45 136 32 136ZM224 424C211 424 200 435 200 448S211 472 224 472C237 472 248 461 248 448S237 424 224 424ZM128 232C115 232 104 243 104 256S115 280 128 280C141 280 152 269 152 256S141 232 128 232ZM432 32H16C7 32 0 39 0 48S7 64 16 64H432C441 64 448 57 448 48S441 32 432 32ZM32 328C19 328 8 339 8 352S19 376 32 376C45 376 56 365 56 352S45 328 32 328ZM32 232C19 232 8 243 8 256S19 280 32 280C45 280 56 269 56 256S45 232 32 232ZM32 424C19 424 8 435 8 448S19 472 32 472C45 472 56 461 56 448S45 424 32 424ZM416 328C403 328 392 339 392 352S403 376 416 376C429 376 440 365 440 352S429 328 416 328ZM416 232C403 232 392 243 392 256S403 280 416 280C429 280 440 269 440 256S429 232 416 232ZM416 424C403 424 392 435 392 448S403 472 416 472C429 472 440 461 440 448S429 424 416 424ZM416 136C403 136 392 147 392 160S403 184 416 184C429 184 440 173 440 160S429 136 416 136ZM320 424C307 424 296 435 296 448S307 472 320 472C333 472 344 461 344 448S333 424 320 424ZM224 136C211 136 200 147 200 160S211 184 224 184C237 184 248 173 248 160S237 136 224 136ZM224 232C211 232 200 243 200 256S211 280 224 280C237 280 248 269 248 256S237 232 224 232ZM320 232C307 232 296 243 296 256S307 280 320 280C333 280 344 269 344 256S333 232 320 232Z"/></svg>