<svg xmlns="http://www.w3.org/2000/svg" viewBox="0 0 448 512"><!-- Font Awesome Pro 6.0.0-alpha1 by @fontawesome - https://fontawesome.com License - https://fontawesome.com/license (Commercial License) --><path d="M400 32H48C22 32 0 54 0 80V432C0 458 22 480 48 480H400C426 480 448 458 448 432V80C448 54 426 32 400 32ZM32 80C32 71 39 64 48 64H208V240H32V80ZM48 448C39 448 32 441 32 432V272H208V448H48ZM416 432C416 441 409 448 400 448H240V272H416V432ZM416 240H240V64H400C409 64 416 71 416 80V240Z"/></svg>