<svg xmlns="http://www.w3.org/2000/svg" viewBox="0 0 448 512"><!-- Font Awesome Pro 6.0.0-alpha1 by @fontawesome - https://fontawesome.com License - https://fontawesome.com/license (Commercial License) --><path d="M144 320H16C7 320 0 327 0 336S7 352 16 352H128V464C128 473 135 480 144 480S160 473 160 464V336C160 327 153 320 144 320ZM304 192H432C441 192 448 185 448 176S441 160 432 160H320V48C320 39 313 32 304 32S288 39 288 48V176C288 185 295 192 304 192ZM432 320H304C295 320 288 327 288 336V464C288 473 295 480 304 480S320 473 320 464V352H432C441 352 448 345 448 336S441 320 432 320ZM144 32C135 32 128 39 128 48V160H16C7 160 0 167 0 176S7 192 16 192H144C153 192 160 185 160 176V48C160 39 153 32 144 32Z"/></svg>