<svg xmlns="http://www.w3.org/2000/svg" viewBox="0 0 448 512"><!-- Font Awesome Pro 6.0.0-alpha1 by @fontawesome - https://fontawesome.com License - https://fontawesome.com/license (Commercial License) --><path d="M144 32H16C7 32 0 39 0 48V176C0 185 7 192 16 192S32 185 32 176V64H144C153 64 160 57 160 48S153 32 144 32ZM144 448H32V336C32 327 25 320 16 320S0 327 0 336V464C0 473 7 480 16 480H144C153 480 160 473 160 464S153 448 144 448ZM432 320C423 320 416 327 416 336V448H304C295 448 288 455 288 464S295 480 304 480H432C441 480 448 473 448 464V336C448 327 441 320 432 320ZM432 32H304C295 32 288 39 288 48S295 64 304 64H416V176C416 185 423 192 432 192S448 185 448 176V48C448 39 441 32 432 32Z"/></svg>