<svg xmlns="http://www.w3.org/2000/svg" viewBox="0 0 576 512"><!-- Font Awesome Pro 6.0.0-alpha1 by @fontawesome - https://fontawesome.com License - https://fontawesome.com/license (Commercial License) --><path d="M525 340C519 330 505 330 499 340C480 370 448 423 448 448C448 483 477 512 512 512S576 483 576 448C576 423 544 370 525 340ZM512 480C494 480 480 466 480 448C480 438 494 410 512 379C530 410 544 438 544 448C544 466 530 480 512 480ZM503 217L295 9C289 3 281 0 272 0C264 0 256 3 250 9L157 102L63 8C56 2 46 2 40 8C34 14 34 24 40 31L134 125L28 231C-9 268 -9 329 28 367L145 484C164 503 189 512 213 512C238 512 262 503 281 484L503 262C515 250 515 230 503 217ZM258 461C246 473 230 480 213 480C196 480 180 473 168 461L51 344C44 337 39 329 36 320H400L258 461ZM432 288H33C35 275 41 263 51 254L157 148L245 235C251 242 261 242 267 235C273 229 273 219 267 213L179 125L272 32L480 240L432 288Z"/></svg>