<svg xmlns="http://www.w3.org/2000/svg" viewBox="0 0 576 512"><!-- Font Awesome Pro 6.0.0-alpha1 by @fontawesome - https://fontawesome.com License - https://fontawesome.com/license (Commercial License) --><path d="M160 184C173 184 184 173 184 160S173 136 160 136C147 136 136 147 136 160S147 184 160 184ZM347 172C335 156 308 156 297 172L253 233L246 224C234 210 209 210 197 224L134 305C127 314 126 326 132 336C137 346 147 352 158 352H418C429 352 439 346 444 337C444 337 444 337 444 337C450 327 449 315 443 306L347 172ZM162 320L220 244L241 270C245 275 258 281 266 269L321 191L413 320H162ZM512 64H64C29 64 0 93 0 128V384C0 419 29 448 64 448H512C547 448 576 419 576 384V128C576 93 547 64 512 64ZM544 384C544 402 530 416 512 416H64C46 416 32 402 32 384V128C32 110 46 96 64 96H512C530 96 544 110 544 128V384Z"/></svg>