<svg xmlns="http://www.w3.org/2000/svg" viewBox="0 0 512 512"><!-- Font Awesome Pro 6.0.0-alpha1 by @fontawesome - https://fontawesome.com License - https://fontawesome.com/license (Commercial License) --><path d="M325 158C314 140 285 141 274 158L200 268L184 246C173 230 146 230 134 246L70 335C63 344 62 357 67 367C73 378 83 384 95 384H417C429 384 439 378 444 368C450 358 449 346 443 336L325 158ZM96 352L158 265L188 306C191 310 196 313 201 313C207 312 212 310 214 305L298 175L415 352H96ZM448 32H64C29 32 0 61 0 96V416C0 451 29 480 64 480H448C483 480 512 451 512 416V96C512 61 483 32 448 32ZM480 416C480 434 466 448 448 448H64C46 448 32 434 32 416V96C32 78 46 64 64 64H448C466 64 480 78 480 96V416ZM144 192C170 192 192 170 192 144S170 96 144 96S96 118 96 144S118 192 144 192ZM144 128C153 128 160 135 160 144S153 160 144 160S128 153 128 144S135 128 144 128Z"/></svg>