<svg xmlns="http://www.w3.org/2000/svg" viewBox="0 0 512 512"><!-- Font Awesome Pro 6.0.0-alpha1 by @fontawesome - https://fontawesome.com License - https://fontawesome.com/license (Commercial License) --><path d="M416 224H384V128C384 57 327 0 256 0S128 57 128 128V224H96C61 224 32 253 32 288V448C32 483 61 512 96 512H416C451 512 480 483 480 448V288C480 253 451 224 416 224ZM160 128C160 75 203 32 256 32S352 75 352 128V224H160V128ZM448 448C448 466 434 480 416 480H96C78 480 64 466 64 448V288C64 270 78 256 96 256H416C434 256 448 270 448 288V448ZM256 320C247 320 240 327 240 336V400C240 409 247 416 256 416S272 409 272 400V336C272 327 265 320 256 320Z"/></svg>