<svg xmlns="http://www.w3.org/2000/svg" viewBox="0 0 512 512"><!-- Font Awesome Pro 6.0.0-alpha1 by @fontawesome - https://fontawesome.com License - https://fontawesome.com/license (Commercial License) --><path d="M112 264C99 264 88 275 88 288S99 312 112 312C125 312 136 301 136 288S125 264 112 264ZM144 152C131 152 120 163 120 176S131 200 144 200S168 189 168 176S157 152 144 152ZM256 0C239 0 222 2 204 5C105 24 25 104 5 203C-29 378 116 512 239 512C248 512 256 511 264 510C305 504 325 455 306 418C283 373 316 320 367 320H447C483 320 512 290 512 255C511 114 397 0 256 0ZM447 288H367C332 288 300 306 282 336C263 366 262 402 278 433C283 443 283 455 278 464C275 469 270 477 259 479C253 480 246 480 239 480C185 480 125 449 84 398C40 345 23 278 37 210C54 123 124 54 210 37C226 34 241 32 256 32C379 32 480 132 480 255C480 273 465 288 447 288ZM368 136C355 136 344 147 344 160S355 184 368 184S392 173 392 160S381 136 368 136ZM240 88C227 88 216 99 216 112S227 136 240 136C253 136 264 125 264 112S253 88 240 88Z"/></svg>