<svg xmlns="http://www.w3.org/2000/svg" viewBox="0 0 448 512"><!-- Font Awesome Pro 6.0.0-alpha1 by @fontawesome - https://fontawesome.com License - https://fontawesome.com/license (Commercial License) --><path d="M434 130L350 46C341 37 329 32 316 32H64C29 32 0 61 0 96V416C0 451 29 480 64 480H384C419 480 448 451 448 416V164C448 151 443 139 434 130ZM96 64H288V160H96V64ZM416 416C416 434 402 448 384 448H64C46 448 32 434 32 416V80C32 71 39 64 48 64H64V160C64 178 78 192 96 192H288C306 192 320 178 320 160V65C322 64 321 64 322 64L411 153C414 155 416 160 416 164V416ZM224 240C180 240 144 276 144 320S180 400 224 400S304 364 304 320S268 240 224 240ZM224 368C198 368 176 346 176 320S198 272 224 272S272 294 272 320S250 368 224 368Z"/></svg>