<svg xmlns="http://www.w3.org/2000/svg" viewBox="0 0 512 512"><!-- Font Awesome Pro 6.0.0-alpha1 by @fontawesome - https://fontawesome.com License - https://fontawesome.com/license (Commercial License) --><path d="M478 384C475 389 470 392 464 392C461 392 459 391 456 390L392 353L406 403C408 412 403 421 394 423C393 423 392 423 390 423C383 423 377 419 375 412L353 331L272 284V377L331 437C338 443 338 453 331 459C328 462 324 464 320 464S312 462 309 459L272 423V496C272 505 265 512 256 512S240 505 240 496V423L203 459C197 466 187 466 181 459S174 443 181 437L240 377V284L159 331L137 412C135 419 129 423 122 423C120 423 119 423 118 423C109 421 104 412 106 403L120 353L56 390C54 391 51 392 48 392C42 392 37 389 34 384C30 376 32 367 40 362L104 325L53 312C45 310 40 301 42 292S53 279 62 281L143 303L224 256L143 209L62 231C60 231 59 231 58 231C51 231 44 227 42 220C40 211 45 202 53 200L104 187L40 150C32 145 30 136 34 128C39 120 48 118 56 122L120 159L106 109C104 100 109 91 118 89C126 87 135 92 137 100L159 181L240 228V135L181 75C174 69 174 59 181 53S197 46 203 53L240 89V16C240 7 247 0 256 0S272 7 272 16V89L309 53C315 46 325 46 331 53S338 69 331 75L272 135V228L353 181L375 100C377 92 386 87 395 89C403 91 408 100 406 109L392 159L456 122C464 118 473 120 478 128C482 136 480 145 472 150L408 187L459 200C467 202 472 211 470 220C468 227 462 231 454 231C453 231 452 231 450 231L369 209L288 256L369 303L450 281C459 279 468 284 470 292C472 301 467 310 459 312L408 325L472 362C480 367 482 376 478 384Z"/></svg>