<?xml version="1.0" encoding="utf-8"?>
<!-- Generator: Adobe Illustrator 15.1.0, SVG Export Plug-In . SVG Version: 6.00 Build 0)  -->
<!DOCTYPE svg PUBLIC "-//W3C//DTD SVG 1.1//EN" "http://www.w3.org/Graphics/SVG/1.1/DTD/svg11.dtd">
<svg version="1.1" id="Layer_1" xmlns="http://www.w3.org/2000/svg" xmlns:xlink="http://www.w3.org/1999/xlink" x="0px" y="0px"
	 width="448px" height="512px" viewBox="0 0 448 512" enable-background="new 0 0 448 512" xml:space="preserve">
<path d="M432,477H16c-9,0-16,7-16,16s7,16,16,16h416c9,0,16-7,16-16S441,477,432,477z"/>
<path d="M128,36c-13,0-24,11-24,24s11,24,24,24s24-11,24-24S141,36,128,36z"/>
<path d="M128,228c-13,0-24,11-24,24s11,24,24,24s24-11,24-24S141,228,128,228z"/>
<path d="M224,324c-13,0-24,11-24,24s11,24,24,24s24-11,24-24S237,324,224,324z"/>
<path d="M32,228c-13,0-24,11-24,24s11,24,24,24s24-11,24-24S45,228,32,228z"/>
<path d="M224,228c-13,0-24,11-24,24s11,24,24,24s24-11,24-24S237,228,224,228z"/>
<path d="M32,132c-13,0-24,11-24,24s11,24,24,24s24-11,24-24S45,132,32,132z"/>
<path d="M32,36C19,36,8,47,8,60s11,24,24,24s24-11,24-24S45,36,32,36z"/>
<path d="M32,324c-13,0-24,11-24,24s11,24,24,24s24-11,24-24S45,324,32,324z"/>
<path d="M416,132c-13,0-24,11-24,24s11,24,24,24s24-11,24-24S429,132,416,132z"/>
<path d="M224,132c-13,0-24,11-24,24s11,24,24,24s24-11,24-24S237,132,224,132z"/>
<path d="M416,324c-13,0-24,11-24,24s11,24,24,24s24-11,24-24S429,324,416,324z"/>
<path d="M416,36c-13,0-24,11-24,24s11,24,24,24s24-11,24-24S429,36,416,36z"/>
<path d="M416,228c-13,0-24,11-24,24s11,24,24,24s24-11,24-24S429,228,416,228z"/>
<path d="M224,36c-13,0-24,11-24,24s11,24,24,24s24-11,24-24S237,36,224,36z"/>
<path d="M320,36c-13,0-24,11-24,24s11,24,24,24s24-11,24-24S333,36,320,36z"/>
<path d="M320,228c-13,0-24,11-24,24s11,24,24,24s24-11,24-24S333,228,320,228z"/>
<path d="M432,409H16c-9,0-16,7-16,16s7,16,16,16h416c9,0,16-7,16-16S441,409,432,409z"/>
</svg>
