<?xml version="1.0" encoding="utf-8"?>
<!-- Generator: Adobe Illustrator 15.1.0, SVG Export Plug-In . SVG Version: 6.00 Build 0)  -->
<!DOCTYPE svg PUBLIC "-//W3C//DTD SVG 1.1//EN" "http://www.w3.org/Graphics/SVG/1.1/DTD/svg11.dtd">
<svg version="1.1" id="Layer_1" xmlns="http://www.w3.org/2000/svg" xmlns:xlink="http://www.w3.org/1999/xlink" x="0px" y="0px"
	 width="16px" height="16px" viewBox="0 0 16 16" enable-background="new 0 0 16 16" xml:space="preserve">
<g>
	<path d="M4,5h8c0.276,0,0.5-0.224,0.5-0.5S12.276,4,12,4H4C3.724,4,3.5,4.224,3.5,4.5S3.724,5,4,5z"/>
	<path d="M10,8H4C3.724,8,3.5,8.224,3.5,8.5S3.724,9,4,9h6c0.828,0,1.5,0.672,1.5,1.5S10.828,12,10,12v-1.203l-2.953,1.707
		L10,14.203V13c1.381,0,2.5-1.119,2.5-2.5S11.381,8,10,8z"/>
	<path d="M3.75,12.5c0,0.276,0.224,0.5,0.5,0.5H6v-1H4.25C3.974,12,3.75,12.224,3.75,12.5z"/>
</g>
</svg>
